# xmcd
#
# Track frame offsets:
#   150
#   14642
#   30772
#   47512
#   62204
#   79397
#   95504
#   112587
#   127149
#   141954
#   157737
#   172827
#   186032
#
# Disc length: 2674 seconds
#
# Revision: 0
# Processed by: cddbd v1.5.2PL0 Copyright (c) Steve Scherf et al.
# Submitted via: GXTranscoder 2.0.1939
#
DISCID=9d0a700d
DTITLE=Paolo Conte - 900
DYEAR=1900
DGENRE=Blues
TTITLE0=Novecento
TTITLE1=Il treno va
TTITLE2=Una oli queste notti
TTITLE3=Pesce veloce del Baltico
TTITLE4=La donna della tua vita
TTITLE5=Per quel du vale
TTITLE6=Inno in re bemolle
TTITLE7=Gong-oh
TTITLE8=I giardini pensili hanno fatto il loro tempo
TTITLE9=Schiava del politeama
TTITLE10=Chiamami adesto
TTITLE11=Brillantina bengolese
TTITLE12=Do do
EXTD=
EXTT0=
EXTT1=
EXTT2=
EXTT3=
EXTT4=
EXTT5=
EXTT6=
EXTT7=
EXTT8=
EXTT9=
EXTT10=
EXTT11=
EXTT12=
PLAYORDER=
